<svg xmlns="http://www.w3.org/2000/svg" viewBox="0 0 1440 320"><path fill="#ffffff" fill-opacity="1" d="M0,288L0,32L102.9,32L102.9,224L205.7,224L205.7,64L308.6,64L308.6,128L411.4,128L411.4,128L514.3,128L514.3,192L617.1,192L617.1,64L720,64L720,32L822.9,32L822.9,96L925.7,96L925.7,96L1028.6,96L1028.6,224L1131.4,224L1131.4,96L1234.3,96L1234.3,224L1337.1,224L1337.1,192L1440,192L1440,320L1337.1,320L1337.1,320L1234.3,320L1234.3,320L1131.4,320L1131.4,320L1028.6,320L1028.6,320L925.7,320L925.7,320L822.9,320L822.9,320L720,320L720,320L617.1,320L617.1,320L514.3,320L514.3,320L411.4,320L411.4,320L308.6,320L308.6,320L205.7,320L205.7,320L102.9,320L102.9,320L0,320L0,320Z"></path></svg>